<svg xmlns="http://www.w3.org/2000/svg" viewBox="0 0 1200 420" style="background: #faf9f7;">
  <defs>
    <!-- Subtle shadows -->
    <filter id="softShadow2" x="-20%" y="-20%" width="140%" height="140%">
      <feDropShadow dx="0" dy="2" stdDeviation="4" flood-color="#000" flood-opacity="0.08"/>
    </filter>

    <!-- Arrow markers -->
    <marker id="arrowMuted2" markerWidth="8" markerHeight="6" refX="7" refY="3" orient="auto">
      <polygon points="0 0, 8 3, 0 6" fill="#94a3b8" />
    </marker>
    <marker id="arrowAccent2" markerWidth="8" markerHeight="6" refX="7" refY="3" orient="auto">
      <polygon points="0 0, 8 3, 0 6" fill="#3b82f6" />
    </marker>
  </defs>

  <!-- Section Labels -->
  <text x="100" y="35" fill="#64748b" font-family="system-ui, -apple-system, sans-serif" font-size="11" font-weight="600" text-anchor="middle" letter-spacing="0.05em">DATA SOURCES</text>
  <text x="340" y="35" fill="#64748b" font-family="system-ui, -apple-system, sans-serif" font-size="11" font-weight="600" text-anchor="middle" letter-spacing="0.05em">ETL PIPELINE</text>
  <text x="560" y="35" fill="#64748b" font-family="system-ui, -apple-system, sans-serif" font-size="11" font-weight="600" text-anchor="middle" letter-spacing="0.05em">DATA LAKE</text>
  <text x="780" y="35" fill="#64748b" font-family="system-ui, -apple-system, sans-serif" font-size="11" font-weight="600" text-anchor="middle" letter-spacing="0.05em">AI LAYER</text>
  <text x="1030" y="35" fill="#64748b" font-family="system-ui, -apple-system, sans-serif" font-size="11" font-weight="600" text-anchor="middle" letter-spacing="0.05em">USERS</text>

  <!-- Source Nodes -->
  <g transform="translate(30, 55)">
    <rect x="0" y="0" width="140" height="52" rx="10" fill="white" stroke="#e2e8f0" stroke-width="1" filter="url(#softShadow2)" />
    <circle cx="24" cy="26" r="14" fill="#dbeafe" />
    <text x="24" y="30" fill="#3b82f6" font-family="system-ui, sans-serif" font-size="10" font-weight="600" text-anchor="middle">ERP</text>
    <text x="50" y="22" fill="#1e293b" font-family="system-ui, sans-serif" font-size="11" font-weight="500">ERP System</text>
    <text x="50" y="38" fill="#64748b" font-family="system-ui, sans-serif" font-size="9">Orders, Inventory</text>
  </g>

  <g transform="translate(30, 120)">
    <rect x="0" y="0" width="140" height="52" rx="10" fill="white" stroke="#e2e8f0" stroke-width="1" filter="url(#softShadow2)" />
    <circle cx="24" cy="26" r="14" fill="#dcfce7" />
    <text x="24" y="31" fill="#16a34a" font-family="system-ui, sans-serif" font-size="14">&#127793;</text>
    <text x="50" y="22" fill="#1e293b" font-family="system-ui, sans-serif" font-size="11" font-weight="500">Climate Systems</text>
    <text x="50" y="38" fill="#64748b" font-family="system-ui, sans-serif" font-size="9">Priva, IUNU</text>
  </g>

  <g transform="translate(30, 185)">
    <rect x="0" y="0" width="140" height="52" rx="10" fill="white" stroke="#e2e8f0" stroke-width="1" filter="url(#softShadow2)" />
    <circle cx="24" cy="26" r="14" fill="#f3e8ff" />
    <text x="24" y="31" fill="#9333ea" font-family="system-ui, sans-serif" font-size="14">&#128100;</text>
    <text x="50" y="22" fill="#1e293b" font-family="system-ui, sans-serif" font-size="11" font-weight="500">Labor Tracking</text>
    <text x="50" y="38" fill="#64748b" font-family="system-ui, sans-serif" font-size="9">Priva FS Labour</text>
  </g>

  <g transform="translate(30, 250)">
    <rect x="0" y="0" width="140" height="52" rx="10" fill="white" stroke="#e2e8f0" stroke-width="1" filter="url(#softShadow2)" />
    <circle cx="24" cy="26" r="14" fill="#fef3c7" />
    <text x="24" y="31" fill="#d97706" font-family="system-ui, sans-serif" font-size="14">&#128196;</text>
    <text x="50" y="22" fill="#1e293b" font-family="system-ui, sans-serif" font-size="11" font-weight="500">Documents</text>
    <text x="50" y="38" fill="#64748b" font-family="system-ui, sans-serif" font-size="9">Invoices, BOLs</text>
  </g>

  <g transform="translate(30, 315)">
    <rect x="0" y="0" width="140" height="52" rx="10" fill="white" stroke="#e2e8f0" stroke-width="1" filter="url(#softShadow2)" />
    <circle cx="24" cy="26" r="14" fill="#ccfbf1" />
    <text x="24" y="31" fill="#0d9488" font-family="system-ui, sans-serif" font-size="14">&#128225;</text>
    <text x="50" y="22" fill="#1e293b" font-family="system-ui, sans-serif" font-size="11" font-weight="500">IoT Sensors</text>
    <text x="50" y="38" fill="#64748b" font-family="system-ui, sans-serif" font-size="9">Digital Counts</text>
  </g>

  <!-- Connection lines from sources to ETL -->
  <path d="M 170 81 Q 220 81 260 180" stroke="#cbd5e1" stroke-width="1.5" fill="none" stroke-dasharray="4,3" />
  <path d="M 170 146 Q 220 146 260 190" stroke="#cbd5e1" stroke-width="1.5" fill="none" stroke-dasharray="4,3" />
  <path d="M 170 211 L 260 205" stroke="#cbd5e1" stroke-width="1.5" fill="none" stroke-dasharray="4,3" />
  <path d="M 170 276 Q 220 276 260 220" stroke="#cbd5e1" stroke-width="1.5" fill="none" stroke-dasharray="4,3" />
  <path d="M 170 341 Q 220 341 260 230" stroke="#cbd5e1" stroke-width="1.5" fill="none" stroke-dasharray="4,3" />

  <!-- ETL Pipeline Node -->
  <g transform="translate(260, 140)">
    <rect x="0" y="0" width="160" height="130" rx="12" fill="white" stroke="#e2e8f0" stroke-width="1" filter="url(#softShadow2)" />
    <text x="80" y="30" fill="#1e293b" font-family="system-ui, sans-serif" font-size="14" font-weight="600" text-anchor="middle">ETL Pipeline</text>
    <line x1="20" y1="45" x2="140" y2="45" stroke="#f1f5f9" stroke-width="1" />
    <text x="80" y="68" fill="#64748b" font-family="system-ui, sans-serif" font-size="10" text-anchor="middle">Clean &amp; Transform</text>
    <text x="80" y="85" fill="#64748b" font-family="system-ui, sans-serif" font-size="10" text-anchor="middle">Normalize Formats</text>
    <text x="80" y="102" fill="#64748b" font-family="system-ui, sans-serif" font-size="10" text-anchor="middle">Validate Rules</text>
    <text x="80" y="119" fill="#64748b" font-family="system-ui, sans-serif" font-size="10" text-anchor="middle">Load to Lake</text>
  </g>

  <!-- Arrow ETL to Data Lake -->
  <path d="M 420 205 L 470 205" stroke="#3b82f6" stroke-width="2" fill="none" marker-end="url(#arrowAccent2)" />

  <!-- Data Lake Node (Central) -->
  <g transform="translate(470, 145)">
    <rect x="0" y="0" width="180" height="120" rx="12" fill="white" stroke="#3b82f6" stroke-width="2" filter="url(#softShadow2)" />
    <rect x="0" y="0" width="180" height="120" rx="12" fill="#eff6ff" />
    <text x="90" y="45" fill="#1e293b" font-family="system-ui, sans-serif" font-size="16" font-weight="600" text-anchor="middle">Unified</text>
    <text x="90" y="67" fill="#1e293b" font-family="system-ui, sans-serif" font-size="16" font-weight="600" text-anchor="middle">Data Lake</text>
    <line x1="30" y1="82" x2="150" y2="82" stroke="#dbeafe" stroke-width="1" />
    <text x="90" y="100" fill="#64748b" font-family="system-ui, sans-serif" font-size="10" text-anchor="middle">Single Source of Truth</text>
  </g>

  <!-- Arrows from Data Lake to AI Layer -->
  <path d="M 650 175 L 700 145" stroke="#94a3b8" stroke-width="1.5" fill="none" marker-end="url(#arrowMuted2)" />
  <path d="M 650 205 L 700 205" stroke="#94a3b8" stroke-width="1.5" fill="none" marker-end="url(#arrowMuted2)" />
  <path d="M 650 235 L 700 265" stroke="#94a3b8" stroke-width="1.5" fill="none" marker-end="url(#arrowMuted2)" />

  <!-- AI Layer Outputs -->
  <g transform="translate(700, 105)">
    <rect x="0" y="0" width="160" height="55" rx="10" fill="white" stroke="#e2e8f0" stroke-width="1" filter="url(#softShadow2)" />
    <text x="80" y="25" fill="#1e293b" font-family="system-ui, sans-serif" font-size="12" font-weight="500" text-anchor="middle">Dashboards</text>
    <text x="80" y="43" fill="#64748b" font-family="system-ui, sans-serif" font-size="10" text-anchor="middle">Real-time KPIs</text>
  </g>

  <g transform="translate(700, 175)">
    <rect x="0" y="0" width="160" height="55" rx="10" fill="white" stroke="#e2e8f0" stroke-width="1" filter="url(#softShadow2)" />
    <text x="80" y="25" fill="#1e293b" font-family="system-ui, sans-serif" font-size="12" font-weight="500" text-anchor="middle">AI Analytics</text>
    <text x="80" y="43" fill="#64748b" font-family="system-ui, sans-serif" font-size="10" text-anchor="middle">Natural Language Queries</text>
  </g>

  <g transform="translate(700, 245)">
    <rect x="0" y="0" width="160" height="55" rx="10" fill="white" stroke="#e2e8f0" stroke-width="1" filter="url(#softShadow2)" />
    <text x="80" y="25" fill="#1e293b" font-family="system-ui, sans-serif" font-size="12" font-weight="500" text-anchor="middle">Predictions</text>
    <text x="80" y="43" fill="#64748b" font-family="system-ui, sans-serif" font-size="10" text-anchor="middle">Forecasts &amp; Alerts</text>
  </g>

  <!-- Arrows to Users -->
  <path d="M 860 132 L 920 100" stroke="#94a3b8" stroke-width="1.5" fill="none" marker-end="url(#arrowMuted2)" />
  <path d="M 860 202 L 920 170" stroke="#94a3b8" stroke-width="1.5" fill="none" marker-end="url(#arrowMuted2)" />
  <path d="M 860 202 L 920 240" stroke="#94a3b8" stroke-width="1.5" fill="none" marker-end="url(#arrowMuted2)" />
  <path d="M 860 272 L 920 310" stroke="#94a3b8" stroke-width="1.5" fill="none" marker-end="url(#arrowMuted2)" />

  <!-- User Groups -->
  <g transform="translate(930, 60)">
    <rect x="0" y="0" width="170" height="55" rx="10" fill="white" stroke="#f97316" stroke-width="1.5" filter="url(#softShadow2)" />
    <text x="85" y="25" fill="#1e293b" font-family="system-ui, sans-serif" font-size="12" font-weight="500" text-anchor="middle">Leadership</text>
    <text x="85" y="43" fill="#64748b" font-family="system-ui, sans-serif" font-size="10" text-anchor="middle">Strategy &amp; investment</text>
  </g>

  <g transform="translate(930, 135)">
    <rect x="0" y="0" width="170" height="55" rx="10" fill="white" stroke="#8b5cf6" stroke-width="1.5" filter="url(#softShadow2)" />
    <text x="85" y="25" fill="#1e293b" font-family="system-ui, sans-serif" font-size="12" font-weight="500" text-anchor="middle">Operations</text>
    <text x="85" y="43" fill="#64748b" font-family="system-ui, sans-serif" font-size="10" text-anchor="middle">Daily decisions</text>
  </g>

  <g transform="translate(930, 210)">
    <rect x="0" y="0" width="170" height="55" rx="10" fill="white" stroke="#3b82f6" stroke-width="1.5" filter="url(#softShadow2)" />
    <text x="85" y="25" fill="#1e293b" font-family="system-ui, sans-serif" font-size="12" font-weight="500" text-anchor="middle">Finance</text>
    <text x="85" y="43" fill="#64748b" font-family="system-ui, sans-serif" font-size="10" text-anchor="middle">Cost &amp; revenue tracking</text>
  </g>

  <g transform="translate(930, 285)">
    <rect x="0" y="0" width="170" height="55" rx="10" fill="white" stroke="#22c55e" stroke-width="1.5" filter="url(#softShadow2)" />
    <text x="85" y="25" fill="#1e293b" font-family="system-ui, sans-serif" font-size="12" font-weight="500" text-anchor="middle">Growers</text>
    <text x="85" y="43" fill="#64748b" font-family="system-ui, sans-serif" font-size="10" text-anchor="middle">Crop &amp; yield insights</text>
  </g>

  <!-- Bottom summary bar -->
  <rect x="30" y="380" width="1140" height="32" rx="8" fill="#f0fdf4" stroke="#bbf7d0" stroke-width="1" />
  <text x="600" y="401" fill="#166534" font-family="system-ui, sans-serif" font-size="11" font-weight="500" text-anchor="middle">
    Result: All data flows to one place | Real-time updates | Every team gets relevant insights | No silos
  </text>
</svg>
